<?xml version="1.0" encoding="UTF-8" standalone="no"?>
<svg
   viewBox="0 0 512 512"
   version="1.1"
   id="svg11"
   sodipodi:docname="swecov.svg"
   inkscape:version="1.2.1 (9c6d41e, 2022-07-14)"
   xmlns:inkscape="http://www.inkscape.org/namespaces/inkscape"
   xmlns:sodipodi="http://sodipodi.sourceforge.net/DTD/sodipodi-0.dtd"
   xmlns="http://www.w3.org/2000/svg"
   xmlns:svg="http://www.w3.org/2000/svg">
  <defs
     id="defs15" />
  <sodipodi:namedview
     id="namedview13"
     pagecolor="#ffffff"
     bordercolor="#666666"
     borderopacity="1.0"
     inkscape:showpageshadow="2"
     inkscape:pageopacity="0.0"
     inkscape:pagecheckerboard="0"
     inkscape:deskcolor="#d1d1d1"
     showgrid="false"
     inkscape:zoom="0.4609375"
     inkscape:cx="-90.033898"
     inkscape:cy="257.08475"
     inkscape:window-width="1440"
     inkscape:window-height="847"
     inkscape:window-x="0"
     inkscape:window-y="25"
     inkscape:window-maximized="1"
     inkscape:current-layer="svg11" />
  <!--! Font Awesome Pro 6.2.0 by @fontawesome - https://fontawesome.com License - https://fontawesome.com/license (Commercial License) Copyright 2022 Fonticons, Inc. -->
  <path
     d="M192 24c0-13.3 10.7-24 24-24h80c13.3 0 24 10.7 24 24s-10.7 24-24 24H280V81.6c30.7 4.2 58.8 16.3 82.3 34.1L386.1 92 374.8 80.6c-9.4-9.4-9.4-24.6 0-33.9s24.6-9.4 33.9 0l56.6 56.6c9.4 9.4 9.4 24.6 0 33.9s-24.6 9.4-33.9 0L420 125.9l-23.8 23.8c17.9 23.5 29.9 51.7 34.1 82.3H464V216c0-13.3 10.7-24 24-24s24 10.7 24 24v80c0 13.3-10.7 24-24 24s-24-10.7-24-24V280H430.4c-4.2 30.7-16.3 58.8-34.1 82.3L420 386.1l11.3-11.3c9.4-9.4 24.6-9.4 33.9 0s9.4 24.6 0 33.9l-56.6 56.6c-9.4 9.4-24.6 9.4-33.9 0s-9.4-24.6 0-33.9L386.1 420l-23.8-23.8c-23.5 17.9-51.7 29.9-82.3 34.1V464h16c13.3 0 24 10.7 24 24s-10.7 24-24 24H216c-13.3 0-24-10.7-24-24s10.7-24 24-24h16V430.4c-30.7-4.2-58.8-16.3-82.3-34.1L125.9 420l11.3 11.3c9.4 9.4 9.4 24.6 0 33.9s-24.6 9.4-33.9 0L46.7 408.7c-9.4-9.4-9.4-24.6 0-33.9s24.6-9.4 33.9 0L92 386.1l23.8-23.8C97.9 338.8 85.8 310.7 81.6 280H48v16c0 13.3-10.7 24-24 24s-24-10.7-24-24V216c0-13.3 10.7-24 24-24s24 10.7 24 24v16H81.6c4.2-30.7 16.3-58.8 34.1-82.3L92 125.9 80.6 137.2c-9.4 9.4-24.6 9.4-33.9 0s-9.4-24.6 0-33.9l56.6-56.6c9.4-9.4 24.6-9.4 33.9 0s9.4 24.6 0 33.9L125.9 92l23.8 23.8c23.5-17.9 51.7-29.9 82.3-34.1V48H216c-13.3 0-24-10.7-24-24zm48 200c0-26.5-21.5-48-48-48s-48 21.5-48 48s21.5 48 48 48s48-21.5 48-48zm64 104c13.3 0 24-10.7 24-24s-10.7-24-24-24s-24 10.7-24 24s10.7 24 24 24z"
     id="path9" />
  <path
     style="opacity:1;stroke-width:1.04136;fill:#d94701;fill-opacity:1"
     d="m 207.18644,508.92455 c -8.45853,-3.57944 -13.01695,-11.00162 -13.01695,-21.1947 0,-8.22914 1.08232,-10.67995 7.08508,-16.04341 6.00285,-5.36354 8.90245,-6.33051 18.98305,-6.33051 h 11.89797 v -18.0066 -18.00663 l -13.55932,-2.78459 c -17.26895,-3.54642 -40.75298,-13.28054 -55.54955,-23.02522 -6.34757,-4.18037 -12.22138,-7.60069 -13.0529,-7.60069 -0.83153,0 -6.80042,5.35507 -13.2642,11.90014 l -11.75232,11.90016 5.52762,5.99815 c 8.69064,9.43045 12.70152,16.30657 12.70152,21.77507 0,14.85295 -15.50562,26.73784 -29.05119,22.26738 -4.42506,-1.46039 -19.063252,-14.4751 -39.949548,-35.51887 -31.671344,-31.91012 -32.965363,-33.56062 -32.965363,-42.047 0,-12.49425 9.237875,-22.30892 20.997866,-22.30892 8.511842,0 14.637798,3.04132 24.654091,12.23994 l 5.516364,5.06602 12.22569,-12.4496 12.22568,-12.44959 -9.27086,-15.18644 C 96.641651,329.21847 88.190687,308.60462 84.666719,291.25424 L 82.133053,278.77966 H 64.930933 47.728814 v 8.74765 c 0,18.35767 -9.482303,30.3032 -24.054559,30.3032 -10.197937,0 -18.5532067,-6.59758 -21.417937,-16.91225 -2.89778219,-10.43367 -2.89778219,-79.40285 0,-89.83653 2.8647303,-10.31467 11.22,-16.91224 21.417937,-16.91224 14.572256,0 24.054559,11.94552 24.054559,30.3032 v 8.74765 h 17.202119 17.20212 l 2.532102,-12.47458 c 3.535113,-17.41597 13.385752,-41.35765 23.631735,-57.43622 l 8.67585,-13.61462 -12.29204,-12.4496 -12.29204,-12.44959 -5.516364,5.06603 c -13.1785,12.10266 -24.790751,15.42964 -34.92467,10.00613 -5.654172,-3.02602 -10.727287,-13.38642 -10.727287,-21.90745 0,-6.12367 4.130167,-11.16209 32.965363,-40.214676 20.886296,-21.04376 35.524488,-34.058477 39.949548,-35.518879 13.54557,-4.470441 29.05119,7.414437 29.05119,22.267399 0,5.468507 -4.01088,12.344621 -12.70152,21.775061 l -5.52762,5.998158 11.75232,11.900147 c 6.46378,6.54508 12.43267,11.90015 13.2642,11.90015 0.83152,0 6.70533,-3.42031 13.0529,-7.60068 14.79657,-9.744692 38.2806,-19.478797 55.54955,-23.025224 l 13.55932,-2.784601 V 64.650683 46.644068 h -11.89797 c -10.0806,0 -12.9802,-0.966966 -18.98305,-6.330514 -6.0388,-5.395662 -7.08508,-7.791208 -7.08508,-16.22188 0,-7.917581 1.20035,-11.091718 6.01541,-15.9067741 l 6.01541,-6.0154084 H 256 305.7997 l 6.01539,6.0154084 c 4.81506,4.8150561 6.01542,7.9891931 6.01542,15.9067741 0,8.430672 -1.04628,10.826218 -7.08508,16.22188 -6.00286,5.363548 -8.90245,6.330514 -18.98305,6.330514 h -11.89797 v 18.006615 18.006612 l 13.55932,2.784601 c 17.26896,3.546427 40.75299,13.280532 55.54955,23.025224 6.34756,4.18037 12.22137,7.60068 13.05289,7.60068 0.83155,0 6.80043,-5.35507 13.26421,-11.90015 l 11.75231,-11.900147 -5.5276,-5.998158 c -8.69066,-9.43044 -12.70153,-16.306554 -12.70153,-21.775061 0,-14.852962 15.50562,-26.73784 29.05118,-22.267399 4.42507,1.460402 19.06326,14.475119 39.94956,35.518879 35.74266,36.012116 37.30319,38.827016 29.68867,53.551896 -7.17214,13.86938 -21.59434,14.73338 -37.29274,2.23414 l -10.76332,-8.5699 -12.29,12.41959 -12.28999,12.41958 5.69363,8.37895 c 8.62662,12.69519 21.65684,42.10767 24.59408,55.5149 4.64752,21.21411 2.75286,19.52542 21.90683,19.52542 h 17.20973 v -8.74765 c 0,-18.35768 9.4823,-30.3032 24.05456,-30.3032 10.19793,0 18.55321,6.59757 21.41794,16.91224 2.89776,10.43368 2.89776,79.40286 0,89.83653 -2.86473,10.31467 -11.22001,16.91225 -21.41794,16.91225 -14.57226,0 -24.05456,-11.94553 -24.05456,-30.3032 v -8.74765 h -17.0626 -17.06262 l -3.72384,15.32134 c -4.9026,20.17104 -10.87518,34.51789 -22.07128,53.01764 l -9.19088,15.18644 12.12705,12.34992 12.12702,12.3499 9.71707,-8.55329 c 7.96791,-7.01364 11.33255,-8.5533 18.6916,-8.5533 10.67249,0 17.03422,3.95582 20.73669,12.89439 5.49936,13.27659 2.30301,18.54416 -31.95125,52.65538 -17.59889,17.52539 -34.82335,32.91785 -38.27658,34.20546 -8.94338,3.33471 -20.09541,-0.80353 -25.33883,-9.40262 -7.15062,-11.72688 -5.19938,-19.63047 8.52235,-34.52027 l 5.5276,-5.99815 -11.75231,-11.90016 c -6.46378,-6.54507 -12.46893,-11.90014 -13.3448,-11.90014 -0.87585,0 -5.99878,2.97379 -11.38428,6.60843 -14.38019,9.70506 -34.80958,18.42442 -53.87095,22.99238 l -16.80117,4.02631 -0.013,17.89831 -0.013,17.8983 h 11.89797 c 10.0806,0 12.9802,0.96697 18.98305,6.33051 6.0388,5.39566 7.08508,7.79121 7.08508,16.22188 0,7.91471 -1.2012,11.09348 -6.0109,15.90677 l -6.00964,6.01542 -47.14165,0.46509 c -25.92789,0.25581 -49.09418,-0.36117 -51.48062,-1.37105 z M 317.02441,325.27963 c 13.27477,-6.86464 15.82792,-27.63225 4.75798,-38.70217 -16.01859,-16.01859 -41.91798,-5.1846 -41.91798,17.53477 0,8.26745 1.16189,10.97509 7.37627,17.18946 8.42272,8.42273 18.56813,9.77775 29.78373,3.97794 z M 214.09733,267.7374 c 37.91441,-18.35405 34.36124,-75.66016 -5.56462,-89.74682 -17.75975,-6.26601 -36.51115,-2.39158 -49.87429,10.30508 -24.6309,23.40244 -18.89957,64.55649 11.05543,79.38395 12.47107,6.17305 31.69931,6.19808 44.38348,0.0577 z"
     id="path296" />
</svg>
